<svg width="20" height="20" viewBox="0 0 20 20" fill="none" xmlns="http://www.w3.org/2000/svg">
<g id="icon/search">
<mask id="path-1-inside-1_66_68" fill="white">
<path fill-rule="evenodd" clip-rule="evenodd" d="M11.0384 12.0319C9.868 13.0785 8.3391 13.712 6.66646 13.712C2.98468 13.712 0 10.6425 0 6.85601C0 3.06954 2.98468 0 6.66646 0C10.3482 0 13.3329 3.06954 13.3329 6.85601C13.3329 8.28497 12.908 9.61182 12.1807 10.7101L20 18.7518L18.7862 20L11.0384 12.0319ZM11.6165 6.85601C11.6165 9.66758 9.40034 11.9468 6.66646 11.9468C3.93257 11.9468 1.71643 9.66758 1.71643 6.85601C1.71643 4.04445 3.93257 1.76523 6.66646 1.76523C9.40034 1.76523 11.6165 4.04445 11.6165 6.85601Z"/>
</mask>
<path fill-rule="evenodd" clip-rule="evenodd" d="M11.0384 12.0319C9.868 13.0785 8.3391 13.712 6.66646 13.712C2.98468 13.712 0 10.6425 0 6.85601C0 3.06954 2.98468 0 6.66646 0C10.3482 0 13.3329 3.06954 13.3329 6.85601C13.3329 8.28497 12.908 9.61182 12.1807 10.7101L20 18.7518L18.7862 20L11.0384 12.0319ZM11.6165 6.85601C11.6165 9.66758 9.40034 11.9468 6.66646 11.9468C3.93257 11.9468 1.71643 9.66758 1.71643 6.85601C1.71643 4.04445 3.93257 1.76523 6.66646 1.76523C9.40034 1.76523 11.6165 4.04445 11.6165 6.85601Z" fill="#DDDDDD"/>
<path d="M11.0384 12.0319L12.4723 10.6377L11.1351 9.26248L9.70529 10.541L11.0384 12.0319ZM12.1807 10.7101L10.5132 9.60592L9.62366 10.9493L10.7468 12.1044L12.1807 10.7101ZM20 18.7518L21.4338 20.1461L22.7896 18.7519L21.4339 17.3575L20 18.7518ZM18.7862 20L17.3523 21.3943L18.7862 22.8689L20.2201 21.3943L18.7862 20ZM6.66646 13.9468C10.5574 13.9468 13.6165 10.7189 13.6165 6.85601H9.61649C9.61649 8.61626 8.24327 9.9468 6.66646 9.9468V13.9468ZM-0.283571 6.85601C-0.283571 10.7189 2.7755 13.9468 6.66646 13.9468V9.9468C5.08965 9.9468 3.71643 8.61626 3.71643 6.85601H-0.283571ZM6.66646 -0.234773C2.7755 -0.234773 -0.283571 2.99312 -0.283571 6.85601H3.71643C3.71643 5.09577 5.08965 3.76523 6.66646 3.76523V-0.234773ZM13.6165 6.85601C13.6165 2.99312 10.5574 -0.234773 6.66646 -0.234773V3.76523C8.24327 3.76523 9.61649 5.09577 9.61649 6.85601H13.6165ZM6.66646 15.712C8.856 15.712 10.8536 14.8801 12.3715 13.5228L9.70529 10.541C8.88242 11.2768 7.82219 11.712 6.66646 11.712V15.712ZM-2 6.85601C-2 11.6938 1.82763 15.712 6.66646 15.712V11.712C4.14174 11.712 2 9.59114 2 6.85601H-2ZM6.66646 -2C1.82763 -2 -2 2.0182 -2 6.85601H2C2 4.12088 4.14174 2 6.66646 2V-2ZM15.3329 6.85601C15.3329 2.0182 11.5053 -2 6.66646 -2V2C9.19117 2 11.3329 4.12088 11.3329 6.85601H15.3329ZM13.8483 11.8143C14.7877 10.3957 15.3329 8.68614 15.3329 6.85601H11.3329C11.3329 7.8838 11.0283 8.82795 10.5132 9.60592L13.8483 11.8143ZM10.7468 12.1044L18.5661 20.146L21.4339 17.3575L13.6146 9.31588L10.7468 12.1044ZM18.5662 17.3575L17.3524 18.6057L20.2201 21.3943L21.4338 20.1461L18.5662 17.3575ZM20.2201 18.6057L12.4723 10.6377L9.60451 13.4262L17.3523 21.3943L20.2201 18.6057Z" fill="#949494" mask="url(#path-1-inside-1_66_68)"/>
</g>
</svg>
